<svg width="20" height="20" viewBox="0 0 20 20" fill="none" xmlns="http://www.w3.org/2000/svg">
<path d="M19.7558 9.40913L15.7742 5.42746C15.6576 5.31095 15.5092 5.23161 15.3475 5.19947C15.1859 5.16734 15.0184 5.18384 14.8661 5.2469C14.7139 5.30995 14.5837 5.41674 14.4922 5.55375C14.4006 5.69075 14.3517 5.85184 14.3517 6.01663V8.53996C14.3517 8.59521 14.3297 8.6482 14.2906 8.68727C14.2516 8.72634 14.1986 8.74829 14.1433 8.74829H1.25C0.918479 8.74829 0.600537 8.87999 0.366117 9.11441C0.131696 9.34883 0 9.66677 0 9.99829C0 10.3298 0.131696 10.6478 0.366117 10.8822C0.600537 11.1166 0.918479 11.2483 1.25 11.2483H14.1433C14.1986 11.2483 14.2516 11.2702 14.2906 11.3093C14.3297 11.3484 14.3517 11.4014 14.3517 11.4566V13.98C14.3517 14.1448 14.4006 14.3058 14.4922 14.4428C14.5837 14.5799 14.7139 14.6866 14.8661 14.7497C15.0184 14.8128 15.1859 14.8293 15.3475 14.7971C15.5092 14.765 15.6576 14.6856 15.7742 14.5691L19.7558 10.5875C19.9121 10.4312 19.9998 10.2193 19.9998 9.99829C19.9998 9.77732 19.9121 9.5654 19.7558 9.40913V9.40913Z" fill="#ECF1F7"/>
</svg>
