<svg width="24" height="24" viewBox="0 0 24 24" fill="none" xmlns="http://www.w3.org/2000/svg">
<path d="M20.41 19.09C20.41 19.504 20.074 19.84 19.66 19.84C19.246 19.84 18.91 19.504 18.91 19.09L18.91 5.9L4.28 20.53C4.139 20.672 3.95 20.75 3.75 20.75C3.55 20.75 3.361 20.672 3.22 20.53C3.078 20.389 3 20.2 3 20C3 19.8 3.078 19.611 3.22 19.47L17.85 4.84L4.66 4.84C4.246 4.84 3.91 4.504 3.91 4.09C3.91 3.676 4.246 3.34 4.66 3.34L19.66 3.34C19.747 3.34 19.834 3.356 19.918 3.386C19.924 3.388 19.929 3.39 19.934 3.392C20.129 3.472 20.278 3.621 20.353 3.804C20.356 3.812 20.36 3.821 20.363 3.83C20.394 3.912 20.41 4 20.41 4.089L20.41 19.09Z" fill="#626D8E"/>
</svg>
