<svg width="28" height="28" viewBox="0 0 28 28" fill="none" xmlns="http://www.w3.org/2000/svg">
<path d="M10.2581 14.5216H12.0119V21.7419C12.0119 21.8845 12.1274 22 12.27 22H15.2437C15.3863 22 15.5018 21.8845 15.5018 21.7419V14.5556H17.518C17.6491 14.5556 17.7594 14.4572 17.7743 14.327L18.0806 11.6689C18.089 11.5957 18.0658 11.5225 18.0169 11.4676C17.9679 11.4127 17.8978 11.3813 17.8243 11.3813H15.5019V9.71499C15.5019 9.2127 15.7723 8.95799 16.3058 8.95799C16.3818 8.95799 17.8243 8.95799 17.8243 8.95799C17.9668 8.95799 18.0823 8.84243 18.0823 8.69992V6.25997C18.0823 6.11742 17.9668 6.00191 17.8243 6.00191H15.7316C15.7169 6.00119 15.6841 6 15.6358 6C15.2727 6 14.0106 6.07128 13.0136 6.98844C11.909 8.0048 12.0626 9.22173 12.0993 9.43272V11.3812H10.2581C10.1155 11.3812 10 11.4967 10 11.6393V14.2635C10 14.406 10.1155 14.5216 10.2581 14.5216Z" fill="#A2B4CF"/>
</svg>
