<svg width="172" height="22" viewBox="0 0 172 22" fill="none" xmlns="http://www.w3.org/2000/svg">
<g clip-path="url(#clip0)">
<path d="M5.49309 4.0798H0V0.375H15.2197V4.0798H9.72657V21.6506H5.49309V4.0798Z" fill="#A2B4CF"/>
<path d="M24.5776 0.375H28.8234V9.84987H36.1967V0.375H40.424V21.6506H36.1905V13.5674H28.8173V21.6506H24.5776V0.375Z" fill="#A2B4CF"/>
<path d="M55.6561 0.375V21.6506H51.4287V0.375H55.6561Z" fill="#A2B4CF"/>
<path d="M65.6465 15.9885H69.9476C70.095 17.5072 71.1211 18.238 72.5651 18.238C74.009 18.238 74.9614 17.3547 74.9614 15.9885C74.9614 14.6222 74.1381 13.8279 71.3423 12.6459C67.244 10.8983 65.8124 8.8966 65.8124 5.77008C65.8124 2.27499 68.2701 -0.00634766 72.2456 -0.00634766C75.8831 7.05168e-06 78.648 2.24957 78.648 5.95437H74.347C74.3624 5.65483 74.3152 5.35537 74.2086 5.07643C74.1019 4.79749 73.9382 4.54565 73.7288 4.33812C73.5194 4.13059 73.2691 3.97224 72.9951 3.87391C72.7211 3.77558 72.4298 3.73957 72.1411 3.76835C70.7586 3.76835 70.052 4.65165 70.052 5.71289C70.052 6.98383 70.9061 7.73369 73.7817 9.01098C77.8923 10.8348 79.2133 12.7476 79.2133 15.7279C79.2133 19.4772 76.6265 22 72.4852 22C68.3439 22 65.88 19.3946 65.6465 15.9885Z" fill="#A2B4CF"/>
<path d="M99.9139 21.6506H93.0444V0.375H99.92C106.587 0.375 111.084 4.26408 111.084 11.0128C111.084 17.7615 106.587 21.6506 99.9139 21.6506ZM99.9446 4.08615H97.2718V17.9331H99.9446C103.797 17.9331 106.789 15.6263 106.789 11.0382C106.789 6.4501 103.797 4.0798 99.9446 4.0798V4.08615Z" fill="#A2B4CF"/>
<path d="M162.279 4.0798H156.78V0.375H172V4.0798H166.513V21.6506H162.286L162.279 4.0798Z" fill="#A2B4CF"/>
<path d="M133.966 17.4373C137.499 17.4373 140.362 14.4755 140.362 10.822C140.362 7.16854 137.499 4.20679 133.966 4.20679C130.434 4.20679 127.57 7.16854 127.57 10.822C127.57 14.4755 130.434 17.4373 133.966 17.4373Z" fill="#F46663"/>
<path d="M143.84 0.184326H138.575L146.47 10.8221L138.575 21.4535H143.84L151.742 10.8221L143.84 0.184326Z" fill="#9FACCC"/>
<path d="M124.092 0.184326H129.358L121.456 10.8221L129.358 21.4535H124.092L116.197 10.8221L124.092 0.184326Z" fill="#9FACCC"/>
</g>
<defs>
<clipPath id="clip0">
<rect width="172" height="22" fill="white"/>
</clipPath>
</defs>
</svg>
