<svg width="28" height="28" viewBox="0 0 28 28" fill="none" xmlns="http://www.w3.org/2000/svg">
<path d="M20.7233 9.15529L22 7.93396V7.66663H17.5773L14.4253 15.512L10.8393 7.66663H6.202V7.93396L7.69333 9.72929C7.83867 9.86196 7.91467 10.056 7.89533 10.2513V17.3066C7.94133 17.5606 7.85867 17.822 7.68 18.0066L6 20.0426V20.3066H10.7633V20.0393L9.08333 18.0066C8.90133 17.8213 8.81533 17.5646 8.852 17.3066V11.204L13.0333 20.31H13.5193L17.1147 11.204V18.458C17.1147 18.6493 17.1147 18.6886 16.9893 18.814L15.696 20.0653V20.3333H21.9707V20.066L20.724 18.8453C20.6147 18.7626 20.558 18.624 20.5813 18.4893V9.51129C20.558 9.37596 20.614 9.23729 20.7233 9.15529V9.15529Z" fill="#A2B4CF"/>
</svg>
