<svg width="24" height="24" viewBox="0 0 24 24" fill="none" xmlns="http://www.w3.org/2000/svg">
<g clip-path="url(#clip0)">
<path d="M12.235 23.421L23.2 13.768C23.6814 13.3015 23.9674 12.6695 24 12C23.967 11.3306 23.681 10.6987 23.2 10.232L12.235 0.578987C12.0963 0.452976 11.9339 0.355821 11.7572 0.29318C11.5806 0.230538 11.3933 0.203661 11.2061 0.214113C11.019 0.224565 10.8358 0.272138 10.6673 0.354062C10.4987 0.435985 10.3481 0.550623 10.2243 0.6913C10.1005 0.831977 10.0059 0.995883 9.946 1.17347C9.88612 1.35107 9.86217 1.53879 9.87554 1.72573C9.88892 1.91267 9.93934 2.09508 10.0239 2.26234C10.1084 2.4296 10.2254 2.57837 10.368 2.69999L18.834 10.15C18.8719 10.1837 18.8987 10.2281 18.9108 10.2773C18.923 10.3266 18.9198 10.3783 18.9018 10.4258C18.8838 10.4732 18.8518 10.514 18.81 10.5428C18.7682 10.5716 18.7187 10.587 18.668 10.587L1.413 10.587C1.03825 10.587 0.678847 10.7359 0.413858 11.0008C0.148869 11.2658 -4.98892e-07 11.6252 -5.15273e-07 12C-5.31654e-07 12.3747 0.148869 12.7341 0.413858 12.9991C0.678847 13.2641 1.03825 13.413 1.413 13.413L18.668 13.413C18.7189 13.4129 18.7685 13.4284 18.8104 13.4573C18.8522 13.4863 18.8842 13.5273 18.9022 13.5749C18.9201 13.6225 18.9231 13.6744 18.9107 13.7237C18.8984 13.7731 18.8712 13.8175 18.833 13.851L10.368 21.3C10.2254 21.4216 10.1084 21.5704 10.0239 21.7376C9.93934 21.9049 9.88892 22.0873 9.87554 22.2742C9.86217 22.4612 9.88612 22.6489 9.946 22.8265C10.0059 23.0041 10.1005 23.168 10.2243 23.3087C10.3481 23.4494 10.4987 23.564 10.6673 23.6459C10.8358 23.7278 11.019 23.7754 11.2061 23.7859C11.3933 23.7963 11.5806 23.7694 11.7572 23.7068C11.9339 23.6442 12.0963 23.547 12.235 23.421V23.421Z" fill="#182D4C"/>
</g>
<defs>
<clipPath id="clip0">
<rect width="24" height="24" fill="white" transform="translate(24) rotate(90)"/>
</clipPath>
</defs>
</svg>
