<svg width="172" height="22" viewBox="0 0 172 22" fill="none" xmlns="http://www.w3.org/2000/svg">
<g clip-path="url(#clip0)">
<path d="M5.49309 4.0798H0V0.375H15.2197V4.0798H9.72657V21.6506H5.49309V4.0798Z" fill="#ECF1F7"/>
<path d="M24.5781 0.375H28.8239V9.84987H36.1972V0.375H40.4245V21.6506H36.191V13.5674H28.8178V21.6506H24.5781V0.375Z" fill="#ECF1F7"/>
<path d="M55.6551 0.375V21.6506H51.4277V0.375H55.6551Z" fill="#ECF1F7"/>
<path d="M65.6465 15.9885H69.9476C70.095 17.5072 71.1211 18.238 72.5651 18.238C74.009 18.238 74.9614 17.3547 74.9614 15.9885C74.9614 14.6222 74.1381 13.8279 71.3423 12.6459C67.244 10.8983 65.8124 8.8966 65.8124 5.77008C65.8124 2.27499 68.2701 -0.00634766 72.2456 -0.00634766C75.8831 7.05151e-06 78.648 2.24957 78.648 5.95437H74.347C74.3624 5.65483 74.3152 5.35537 74.2086 5.07643C74.1019 4.79749 73.9382 4.54565 73.7288 4.33812C73.5194 4.13059 73.2691 3.97224 72.9951 3.87391C72.7211 3.77558 72.4298 3.73957 72.1411 3.76835C70.7586 3.76835 70.052 4.65165 70.052 5.71289C70.052 6.98383 70.9061 7.73369 73.7817 9.01098C77.8923 10.8348 79.2133 12.7476 79.2133 15.7279C79.2133 19.4772 76.6265 22 72.4852 22C68.3439 22 65.88 19.3946 65.6465 15.9885Z" fill="#ECF1F7"/>
<path d="M99.9144 21.6506H93.0449V0.375H99.9205C106.587 0.375 111.085 4.26408 111.085 11.0128C111.085 17.7615 106.587 21.6506 99.9144 21.6506ZM99.9451 4.08615H97.2723V17.9331H99.9451C103.798 17.9331 106.79 15.6263 106.79 11.0382C106.79 6.4501 103.798 4.0798 99.9451 4.0798V4.08615Z" fill="#ECF1F7"/>
<path d="M162.28 4.0798H156.781V0.375H172.001V4.0798H166.514V21.6506H162.287L162.28 4.0798Z" fill="#ECF1F7"/>
<path d="M133.967 17.4373C137.499 17.4373 140.363 14.4755 140.363 10.822C140.363 7.16854 137.499 4.20679 133.967 4.20679C130.434 4.20679 127.57 7.16854 127.57 10.822C127.57 14.4755 130.434 17.4373 133.967 17.4373Z" fill="#F46663"/>
<path d="M143.84 0.184326H138.574L146.47 10.8221L138.574 21.4535H143.84L151.742 10.8221L143.84 0.184326Z" fill="#9FACCC"/>
<path d="M124.093 0.184326H129.359L121.457 10.8221L129.359 21.4535H124.093L116.197 10.8221L124.093 0.184326Z" fill="#9FACCC"/>
</g>
<defs>
<clipPath id="clip0">
<rect width="172" height="22" fill="white"/>
</clipPath>
</defs>
</svg>
