<svg width="180" height="40" viewBox="0 0 180 40" fill="none" xmlns="http://www.w3.org/2000/svg">
<g clip-path="url(#clip0)">
<path d="M5.74858 4.26516H0V0.391968H15.9276V4.26516H10.179V22.6346H5.74858V4.26516Z" fill="#ECF1F7"/>
<path d="M25.7207 0.391968H30.164V10.2975H37.8802V0.391968H42.3041V22.6346H37.8737V14.184H30.1575V22.6346H25.7207V0.391968Z" fill="#ECF1F7"/>
<path d="M58.2445 0.391968V22.6346H53.8206V0.391968H58.2445Z" fill="#ECF1F7"/>
<path d="M68.7 16.7152H73.2011C73.3554 18.303 74.4292 19.067 75.9403 19.067C77.4514 19.067 78.4481 18.1435 78.4481 16.7152C78.4481 15.2868 77.5865 14.4564 74.6607 13.2207C70.3718 11.3937 68.8736 9.30097 68.8736 6.03234C68.8736 2.37838 71.4456 -0.00665283 75.606 -0.00665283C79.4126 -9.27344e-06 82.3062 2.35181 82.3062 6.22501H77.8051C77.8213 5.91185 77.7719 5.59878 77.6603 5.30716C77.5486 5.01554 77.3774 4.75226 77.1582 4.53529C76.9391 4.31832 76.6772 4.15278 76.3904 4.04998C76.1036 3.94718 75.7988 3.90953 75.4967 3.93962C74.0499 3.93962 73.3104 4.86308 73.3104 5.97255C73.3104 7.30126 74.2042 8.0852 77.2135 9.42056C81.5153 11.3273 82.8978 13.327 82.8978 16.4428C82.8978 20.3625 80.1907 23 75.8568 23C71.5228 23 68.9443 20.2761 68.7 16.7152Z" fill="#ECF1F7"/>
<path d="M104.561 22.6346H97.3723V0.391968H104.568C111.544 0.391968 116.251 4.45783 116.251 11.5133C116.251 18.5687 111.544 22.6346 104.561 22.6346ZM104.593 4.27181H101.796V18.7481H104.593C108.625 18.7481 111.757 16.3365 111.757 11.5399C111.757 6.74321 108.625 4.26516 104.593 4.26516V4.27181Z" fill="#ECF1F7"/>
<path d="M169.828 4.26516H164.073V0.391968H180V4.26516H174.258V22.6346H169.834L169.828 4.26516Z" fill="#ECF1F7"/>
<path d="M140.197 18.2299C143.894 18.2299 146.891 15.1335 146.891 11.314C146.891 7.49438 143.894 4.39801 140.197 4.39801C136.5 4.39801 133.503 7.49438 133.503 11.314C133.503 15.1335 136.5 18.2299 140.197 18.2299Z" fill="#F46663"/>
<path d="M150.53 0.192688H145.02L153.283 11.314L145.02 22.4287H150.53L158.8 11.314L150.53 0.192688Z" fill="#9FACCC"/>
<path d="M129.864 0.192688H135.375L127.105 11.314L135.375 22.4287H129.864L121.601 11.314L129.864 0.192688Z" fill="#9FACCC"/>
</g>
<path d="M102.121 37.4571L104.699 33.5714L105.124 40H107.221L106.428 30H104.926L101.611 35.0143L98.2952 30H96.7934L96 40H98.0969L98.5219 33.5714L101.1 37.4571H102.121Z" fill="#F46663"/>
<path d="M116.078 40H122.298V38.2571H118.118V36.1714H121.519V34.4286H118.118V31.7429H122.17V30H116.078V40Z" fill="#F46663"/>
<path d="M138.648 35.0143C138.648 37.1714 137.203 38.2571 135.347 38.2571H134.058V31.7429H135.347C137.203 31.7429 138.648 32.8286 138.648 35.0143ZM140.717 35C140.717 31.8286 138.549 30 135.333 30H132.018V40H135.333C138.549 40 140.717 38.1857 140.717 35Z" fill="#F46663"/>
<path d="M153 30V40H155.04V30H153Z" fill="#F46663"/>
<path d="M173.875 40H176L171.991 30H170.347L166.338 40H168.463L169.03 38.5143H173.308L173.875 40ZM171.169 32.9143L172.657 36.8H169.681L171.169 32.9143Z" fill="#F46663"/>
<defs>
<clipPath id="clip0">
<rect width="180" height="23" fill="white"/>
</clipPath>
</defs>
</svg>
