<svg width="28" height="28" viewBox="0 0 28 28" fill="none" xmlns="http://www.w3.org/2000/svg">
<path d="M21.6374 8.51179C21.3861 8.62328 21.1276 8.71737 20.8636 8.79376C21.1762 8.44021 21.4146 8.02421 21.5601 7.56898C21.5927 7.46694 21.5589 7.35525 21.475 7.28852C21.3912 7.22173 21.2748 7.21373 21.1826 7.26839C20.6218 7.60098 20.0168 7.84 19.3825 7.97977C18.7434 7.35536 17.8755 7 16.9783 7C15.0843 7 13.5435 8.5408 13.5435 10.4347C13.5435 10.5838 13.5529 10.7322 13.5716 10.8785C11.2214 10.6721 9.0365 9.51696 7.53611 7.67649C7.48264 7.61089 7.40027 7.57554 7.31593 7.5823C7.23155 7.5889 7.15573 7.63649 7.11309 7.70963C6.80879 8.23179 6.64791 8.82901 6.64791 9.43665C6.64791 10.2643 6.94339 11.0495 7.46535 11.6631C7.30664 11.6081 7.15263 11.5394 7.00564 11.4578C6.92672 11.4139 6.83041 11.4146 6.75201 11.4595C6.67356 11.5045 6.62437 11.5872 6.62231 11.6775C6.62195 11.6928 6.62195 11.708 6.62195 11.7234C6.62195 12.9588 7.28682 14.071 8.30334 14.6772C8.21601 14.6684 8.12873 14.6558 8.04202 14.6392C7.95263 14.6221 7.86071 14.6535 7.80042 14.7217C7.74004 14.7898 7.72006 14.8848 7.74788 14.9715C8.12414 16.1462 9.09286 17.0102 10.264 17.2737C9.29266 17.882 8.18189 18.2007 7.01586 18.2007C6.77255 18.2007 6.52786 18.1864 6.28837 18.158C6.1694 18.1439 6.05565 18.2142 6.01513 18.3273C5.97462 18.4405 6.01756 18.5667 6.11877 18.6315C7.61673 19.592 9.34881 20.0997 11.1276 20.0997C14.6246 20.0997 16.8122 18.4506 18.0316 17.0673C19.5521 15.3423 20.4242 13.0591 20.4242 10.8032C20.4242 10.7089 20.4227 10.6137 20.4198 10.5189C21.0197 10.0669 21.5362 9.5199 21.9565 8.8912C22.0203 8.79572 22.0134 8.66952 21.9395 8.58163C21.8656 8.49368 21.7425 8.46524 21.6374 8.51179Z" fill="#A2B4CF"/>
</svg>
